<?xml version="1.0" encoding="UTF-8"?>
<svg version="1.1" viewBox="0 0 2048 2048" width="512" height="512" xmlns="http://www.w3.org/2000/svg">
<path transform="translate(122,216)" d="m0 0h1193l10 2 8 6 5 10 1 616 11-27 8-14 13-16 8-8 13-10 16-9 19-7 15-3 8-1h25l78 2h8l2-21 1-1 12-1 3-11v-6l-11-6-10-8-8-9-8-14-4-12-2-13v-13l4-85 3-25 5-21 8-19 9-15 12-13 10-9 14-8 12-5 20-4h31l21 3 1-12 4-14 6-10 5-4 3-1h11l12 5 11 8 4 3 10-16 9-11 9-8 13-7 10-2 16 1 11 4 10 6 8 9 3 8v15l-3 9 19-5 7-1h14l10 3 6 4 5 7 1 3v10l-4 10-7 11-11 12-4 3h-2l3 3 11 6 8 8 4 10v8l-3 11-8 11-11 7-14 5-18 3 2 4 6 7 7 12 4 11v12l-5 10-7 7-8 4-7 2h-12l-15-4-16-8-6 2h-11l-6-3-6-7-1-7h-2v7l-6 24-7 19-8 16-10 15-11 12-10 9-15 9-13 5h-2l-3 17-2 11v2l5 2v24l38 5 4-16 6-12 9-12 7-7 10-7 12-6 16-4 12-1-2 6-14 27-10 19-6 14-1 3 17 3 18 6 16 8 9 6 3-1 8-16 15-28 7-14 3 1 8 17 4 16v19l-4 16-8 16-4 6 1 5 8 17 4 13 5 27 16 99 26 162 16 99 14 86 10 60 1 10v16l-3 18-5 15-9 16-11 13-10 8-16 8-15 4h-25l-16-4-16-7-11-7-13-11-9-11-8-13-4-8 2 12 13 28 9 21 10 30 5 21 4 27 14 134 12 100v8h-570l3-12 23-86 10-36 10-40 12-60 31-163 6-33 1-9 3-96v-25l-12 37-12 39-16 51-8 32-6 13-7 11-10 11-13 9-15 7-18 4h-20l-17-4-16-8-13-10-9-10-9-15-12-36-14-47-16-53-12-40-16-54-9-29-15-50-11-37-6-20-946-1-9-2-8-6-4-8-1-6v-809l3-9 7-7 6-3zm-2 8-6 3-5 6-1 3v813l4 6 7 4h946l-2-11-8-26-5-4-23-12-22-12-11-7-9-9-5-8-8-20-11-30-2-4-4 2-31 31-1 2h-5l-2-4-6-5-5-5-4-5-5-5h-2l-2-4h-2l-2-4h-2l-2-4h-2l-2-4h-2l-2-4h-2l-1-3-6-5-7-8v-2l8-7 32-32-2-6-6-14-5-15-4-16h-62v-88h66l10-25 9-18-2-4-43-43 1-5 10-9 10-10v-2l4-2v-2l3-1 5-6 5-5 5-4 7-8 8-8 3-1 46 46 5-1 19-10 20-7 1-67 87 1 1 61 25 7 20 8 6 2 37-37v-2h5l56 56h2l1 5-34 34 1 6 8 13 10 21 6 16 1 1 47 1v86l-43 1-2 7-7 23-7 16-8 16 28 28-1 4-15 15-7 8-11 11-8 7v2l-4 2v2l-3 1-5 5-4 5-5-1-23-23h-1l-1 38-2 32v13l3 9 11 24 8 16h80l3-4 17-49 13-36 19-54 11-31 3-16v-622l-1-13-4-6-4-3-4-1zm940 414-17 2-19 5-16 7-15 9-13 11-10 10-9 12-9 16-6 15-4 15-2 14v21l4 22 6 17 7 14 5 8 3-3 2-5 4-2 7-3 10 1 6 3 5 9 4-2v-2l6-2 2-1h9l8 3 6 7 5-5 6-4h10l10 5 3 3h2l4-6 5-3h11l9 4 4 4 8 18 9 21 2 1 14-8 16-13 9-9 10-13 9-16 6-16 4-17 1-7v-28l-4-20-5-15-10-19-9-12-11-12-12-10-13-8-14-7-15-5-14-3-12-1zm129 429 3 9 16 34 12 26 7 16 2 4h3l16-45 15-42v-2zm192 192v5h1v-5z" fill="#1F4EFB"/>
<path transform="translate(122,216)" d="m0 0h1193l10 2 8 6 5 10 1 616 11-27 8-14 13-16 8-8 13-10 16-9 19-7 15-3 8-1h25l37 1-4 4-12 20-4 7-10 17-16 27-9 16-13 22-8 13-13 23-10 16-6 11-6 9-8 16-2 7-2 55-1 41-1 20-3 121-3 63-13 40-12 39-16 51-8 32-6 13-7 11-10 11-13 9-15 7-18 4h-20l-17-4-16-8-13-10-9-10-9-15-12-36-14-47-16-53-12-40-16-54-9-29-15-50-11-37-6-20-946-1-9-2-8-6-4-8-1-6v-809l3-9 7-7 6-3zm-2 8-6 3-5 6-1 3v813l4 6 7 4h946l-2-11-8-26-5-4-23-12-22-12-11-7-9-9-5-8-8-20-11-30-2-4-4 2-31 31-1 2h-5l-2-4-6-5-5-5-4-5-5-5h-2l-2-4h-2l-2-4h-2l-2-4h-2l-2-4h-2l-2-4h-2l-1-3-6-5-7-8v-2l8-7 32-32-2-6-6-14-5-15-4-16h-62v-88h66l10-25 9-18-2-4-43-43 1-5 10-9 10-10v-2l4-2v-2l3-1 5-6 5-5 5-4 7-8 8-8 3-1 46 46 5-1 19-10 20-7 1-67 87 1 1 61 25 7 20 8 6 2 37-37v-2h5l56 56h2l1 5-34 34 1 6 8 13 10 21 6 16 1 1 47 1v86l-43 1-2 7-7 23-7 16-8 16 28 28-1 4-15 15-7 8-11 11-8 7v2l-4 2v2l-3 1-5 5-4 5-5-1-23-23h-1l-1 38-2 32v13l3 9 11 24 8 16h80l3-4 17-49 13-36 19-54 11-31 3-16v-622l-1-13-4-6-4-3-4-1zm940 414-17 2-19 5-16 7-15 9-13 11-10 10-9 12-9 16-6 15-4 15-2 14v21l4 22 6 17 7 14 5 8 3-3 2-5 4-2 7-3 10 1 6 3 5 9 4-2v-2l6-2 2-1h9l8 3 6 7 5-5 6-4h10l10 5 3 3h2l4-6 5-3h11l9 4 4 4 8 18 9 21 2 1 14-8 16-13 9-9 10-13 9-16 6-16 4-17 1-7v-28l-4-20-5-15-10-19-9-12-11-12-12-10-13-8-14-7-15-5-14-3-12-1zm129 429 3 9 16 34 12 26 7 16 2 4h3l16-45 15-42v-2z" fill="#DD7929"/>
<path transform="translate(1789,707)" d="m0 0h4l-2 6-14 27-10 19-6 14-1 3 17 3 18 6 16 8 9 6 3-1 8-16 15-28 7-14 3 1 8 17 4 16v19l-4 16-8 16-4 6 1 5 8 17 4 13 5 27 16 99 26 162 16 99 14 86 10 60 1 10v16l-3 18-5 15-9 16-11 13-10 8-16 8-15 4h-25l-16-4-16-7-11-7-13-11-9-11-8-13-6-11-7-25-28-98-21-73-7-26-7-23-7-26-7-24v-2l-5-2-17-9-11-8-7-6-5-7v-2l-10 4h-12v-2h-5l-9-5-7-5v-3l-3-1-3-6-1-9 2-7h2l1-7 5-8v-7l-4-5-8-11v-2h-2l-5-7v-2l-3-1-5-10-1-6v-9l4-8 9-10 9-5h4l-4-11v-11l4-8 8-7 5-3 4-1h8l-5-11v-10l5-9 7-7 7-3h10l9 1-2-8 1-14 6-11 7-8 12-7 10-2 12 1 7 1 5-4 4-10 2-4-1-6-6-9-5-14-3-13-1-11v-9h2l4-16 6-12 9-12 7-7 10-7 12-6 16-4z" fill="#DD7929"/>
<path transform="translate(1013,519)" d="m0 0h87l1 1v61l12 2 24 8 13 6 4-2 37-37 4 1 59 59-2 4-32 32 1 6 8 13 10 21 6 16 47 1 1 1v86l-1 1-43 1-4 17-8 22-10 20v3l27 27-1 4-15 15-7 8-12 12h-2l-2 4-7 6-5 6-6 5-2 3-5-1-23-23v-32l-4-9-7-5-5-1h-7l-8 4-3 4-4 19-3 18-3 14-5 3-16 5-1 5-1 36-2 2-7 1h-76l-3-3v-47l-10-2-9-4-12-6-20-9-2-5-8 7-26 26-2 3-5-1-6-7-3-2v-2l-4-2-4-4v-2l-3-1-6-7-6-5-6-7-6-5-5-6-10-10 1-3 8-7 31-31-2-6-6-14-5-15-3-12v-4h-62l-1-4v-82l1-2h66l3-11 8-18 7-14-2-4-43-43 1-5 12-11 8-8 5-6 4-4h2l2-4h2l2-4 4-4h2l2-4 13-13 3-1 46 46 5-1 19-10 17-6h3v-65zm47 119-17 2-19 5-16 7-15 9-13 11-10 10-9 12-9 16-6 15-4 15-2 14v21l4 22 6 17 7 14 5 8 3-3 2-5 4-2 7-3 10 1 6 3 5 9 4-2v-2l6-2 2-1h9l8 3 6 7 5-5 6-4h10l10 5 3 3h2l4-6 5-3h11l9 4 4 4 8 18 9 21 2 1 14-8 16-13 9-9 10-13 9-16 6-16 4-17 1-7v-28l-4-20-5-15-10-19-9-12-11-12-12-10-13-8-14-7-15-5-14-3-12-1z" fill="#FBC109"/>
<path transform="translate(347,454)" d="m0 0h24l19 2 19 4 17 5 18 8 11 6 13 9 11 9 9 9 11 15 8 16 4 13 2 12v30l-3 9-6 10-10 8-11 4-5 1h-15l-13-4-8-6-8-9-4-9-1-5-1-25-4-10-6-7-10-7-13-6-13-4-14-2h-19l-14 2-18 6-12 7-10 9-4 7-2 8v73l3 10 9 10 12 8 16 6 14 3 39 3 24 4 20 6 17 7 17 10 12 9 12 11 8 9 10 15 7 16 3 13 1 8v60l-3 17-6 16-9 15-11 13-9 9-15 11-18 10-20 8-22 6-19 3-10 1h-26l-23-3-21-5-19-7-16-8-16-10-10-9-8-7-11-14-8-14-6-16-3-16v-19l3-10 6-9 8-7 10-5 10-2h11l12 3 11 7 8 9 4 9 1 4 1 16 3 9 9 10 9 6 12 6 14 4 15 2h14l16-2 16-5 14-7 9-7 6-9 2-7v-53l-4-10-7-8-11-7-11-5-13-4-14-2-31-2-19-3-16-4-15-5-23-11-16-11-10-9-11-11-9-13-8-16-4-13-2-16v-78l2-15 5-15 8-15 10-13 9-10 15-12 13-8 16-8 15-6 24-6z" fill="#1F4EFC"/>
<path transform="translate(1793,372)" d="m0 0 16 1 11 4 10 6 8 9 3 8v15l-3 9 19-5 7-1h14l10 3 6 4 5 7 1 3v10l-4 10-7 11-11 12-4 3h-2l3 3 11 6 8 8 4 10v8l-3 11-8 11-11 7-14 5-18 3 2 4 6 7 7 12 4 11v12l-5 10-7 7-8 4-7 2h-12l-15-4-16-8-6 2h-11l-6-3-6-7-1-7h-2v7l-6 24-7 19-8 16-10 15-11 12-10 9-15 9-13 5h-2l-3 17-2 11v2l-31-1-36-2-27-3-3-1 2-11v-6l-11-6-10-8-8-9-8-14-4-12-2-13v-13l4-85 3-25 5-21 8-19 9-15 12-13 10-9 14-8 12-5 20-4h31l21 3 1-12 4-14 6-10 5-4 3-1h11l12 5 11 8 4 3 10-16 9-11 9-8 13-7z" fill="#66013E"/>
<path transform="translate(627,459)" d="m0 0h63l96 1 10 3 9 6 7 8 4 9 1 4v14l-4 11-6 8-8 7-12 4-10 1-137 1v117l147 1 11 4 8 6 7 9 4 11v15l-5 12-7 8-5 4-8 4-13 2h-139l-1 149h140l13 2 8 4 10 9 6 12 1 3v15l-4 11-6 8-7 6-10 4-5 1h-191l-10-4-6-4-7-7-5-10-2-9v-426l2-9 5-9 9-9 10-5 4-1z" fill="#1F4EFC"/>
<path transform="translate(1617,488)" d="m0 0h14l20 3 21 6 3 2-2 10v18l4 17 6 15 9 17 3 4 1 7-5 22 1 3 8-2h8l8 3 5 4 5 10v12l-6 12-9 8-6 3-4 1h-13l-4-1-3 30-1 18-1 1-3 17-2 11v2l-31-1-36-2-27-3-3-1 2-11v-6l-11-6-10-8-8-9-8-14-4-12-2-13v-13l4-85 2-18 2-5 8-11 9-10 11-10 15-8 16-5z" fill="#DD7929"/>
<path transform="translate(122,216)" d="m0 0h1193l10 2 8 6 5 10v616l-2 13-4 10-2-4v-622l-1-13-4-6-7-3h-1198l-6 3-4 5-1 3v813l4 6 6 3 945 1 4 8h-946l-9-2-8-6-4-8-1-6v-809l3-9 7-7 6-3z" fill="#2250FC"/>
<path transform="translate(1789,707)" d="m0 0h4l-2 6-14 27-10 19-6 14-1 3 17 3 18 6 16 8 9 6 3-1 8-16 15-28 7-14 3 1 8 17 4 16v19l-4 16-8 16-7 11-11 8-14 8-9 4-15 4-13 1-7 10-13 25-4 4-4 11-7 11-9 18h-2l-12-18-6-11-7-11-6-11-1-2v-9l9-16 4-8-3-1 6-5 4-10 2-4-1-6-6-9-5-14-3-13-1-11v-9h2l4-16 6-12 9-12 7-7 10-7 12-6 16-4z" fill="#FBC00A"/>
<path transform="translate(978,822)" d="m0 0 10 1 6 3 3 4 2 5 3-1 4-4 5-2h9l8 3 6 7 5-5 6-4h10l10 5 5 4 2-5 7-5h11l9 4 5 5 8 18 9 21 3 5 1 3v9l-3 6-8 4-8 1-10-4-8-6-2 2-3 7-5 4-2 1h-11l-8-4-7-6-2-6h-3l-2 10-5 6-7 4h-8l-9-7-4-5-2-4-2-7-5 9-6 5-5 2-9-1-9-6-4-7-4-43v-15l3-5 8-5z" fill="#DE7A28"/>
<path transform="translate(1764,900)" d="m0 0 3 1 7 20 10 28 3 15 7 65 4 15 18 41 13 29 15 34 16 36 5 11 17 39 12 27 12 28 7 15 6 13 4 10v2l-4-1-6-12-16-36-18-41-18-40-18-41-17-38-12-28-7-15-13-29-3-9-3-20-3-31-3-27-6-20-9-24-4-10v-6z" fill="#66013E"/>
<path transform="translate(1613,1061)" d="m0 0h3l7 12 21 30 4 5 1 5-8 3h-12v-2h-5l-9-5-7-5v-3l-3-1-3-6-1-9 2-7h2l1-7 6-9z" fill="#F9BE12"/>
<path transform="translate(1762,777)" d="m0 0 10 1 15 4 17 7 15 9-1 5-5 5-9 4-5 1h-9l-9-3-11-7-7-10-3-9 1-6z" fill="#DE7A28"/>
<path transform="translate(1708,448)" d="m0 0 6 1 17 9 16 13 8 9 8 14 5 13 3 13v21l-3 14-3-1-2-18-6-19-5-12-8-15-8-12-12-14-13-11-3-2z" fill="#1F4EFC"/>
<path transform="translate(1229,1156)" d="m0 0 3 1 8 15 15 33 24 52 7 16 7 15 16 34 7 15v5h-3l-16-34-13-28-18-39-13-28-11-25-7-14-5-11z" fill="#66013E"/>
<path transform="translate(232,278)" d="m0 0h7l6 3 5 6 1 8-3 7-6 5-8 1-8-3-4-5-2-8 3-8 6-5z" fill="#2351FC"/>
<path transform="translate(170,278)" d="m0 0h7l6 3 4 5 1 2v9l-3 5-6 5-8 1-7-3-5-6-1-3v-7l4-6 5-4z" fill="#2150FC"/>
<path transform="translate(294,278)" d="m0 0h7l8 4 4 6v9l-4 6-5 4-8 1-7-3-5-6-1-3v-7l5-8z" fill="#2250FC"/>
<path transform="translate(1428,892)" d="m0 0 1 2-9 16-7 11-6 11-6 9-8 16-2 7-2 55-1 41-1 20-3 121-3 63-2 2v-16l1-15 2-67 1-52 3-83 1-42 2-31 4-9 8-14 12-20 13-22z" fill="#67023F"/>
<path transform="translate(1187,1059)" d="m0 0h76l1 4-3 4h-71l-3-5z" fill="#1F4EFC"/>
<path transform="translate(1640,573)" d="m0 0h10l14 5 9 8 3 6-1 3-4-1-9-8-10-3h-15l-4-4 2-4z" fill="#66013E"/>
<path transform="translate(1564,553)" d="m0 0h12l16 7 5 5-2 5h-6l-12-7-6-2h-8l-6 2h-5l1-4 8-5z" fill="#66013E"/>
<path transform="translate(1645,704)" d="m0 0 3 1-4 5-15 8-15 5-14 1-17-3-3-1v-3l11 1h23l12-4 14-7z" fill="#66013E"/>
<path transform="translate(1572,585)" d="m0 0 5 1 5 4 1 6-4 6-4 2-6-1-4-3-1-9 5-5z" fill="#66013E"/>
<path transform="translate(1603,606)" d="m0 0 3 1-1 5-10 18-4 8v5l14 6-1 3-7-1-11-4-2-4 5-12 12-23z" fill="#66013E"/>
<path transform="translate(1637,604)" d="m0 0h8l6 6-1 7-5 4h-7l-5-4-1-6 3-5z" fill="#66013E"/>
<path transform="translate(1667,898)" d="m0 0 2 2 8 16 6 11 8 15v3l-4-1-12-21-9-19-2-2-7-1h-12l3-2h10l9 1z" fill="#66013E"/>
<path transform="translate(1694,628)" d="m0 0 10 1 11 3v4h-12l-1 9-5 6-6 2-2-1 1-4 6-4 2-3v-6l-4-4z" fill="#66013E"/>
<path transform="translate(1633,934)" d="m0 0 2 1 3 5 11 17 14 21v3l-4-1-7-10-11-17-6-10-1-3-12 1 4-2h8z" fill="#66013E"/>
<path transform="translate(1608,974)" d="m0 0 3 3 12 19 14 21 1 4h-3l-7-9-10-16-9-14-4-2h4z" fill="#66013E"/>
<path transform="translate(1068,838)" d="m0 0 3 3 6 17 7 23 1 7-4-1-12-39-1-3z" fill="#66013E"/>
<path transform="translate(1622,661)" d="m0 0 2 2-1 5-7 8-5 3-4 1h-7l-9-4-2-4 7 1 3 1h9l6-3z" fill="#66013E"/>
<path transform="translate(1033,840)" d="m0 0 4 2 8 35 2 10h-4l-4-16-6-28z" fill="#66013E"/>
<path transform="translate(997,836)" d="m0 0 3 1 3 19 1 9v9l-3-1-2-15-2-14z" fill="#66013E"/>
</svg>
