<?xml version="1.0" encoding="UTF-8"?>
<svg version="1.1" viewBox="0 0 2048 1145" width="211" height="118" xmlns="http://www.w3.org/2000/svg">
<path transform="translate(182,140)" d="m0 0h187l39 2 22 3 19 5 23 10 15 8 16 10 13 10 11 9 12 12 11 14 11 15 11 19 9 20 7 19 5 21 4 25 1 12v13l-3 25-5 26-8 24-12 25-10 16-10 12-9 11-12 12-14 11-19 13-18 10-16 6-18 4h-4l7 11 7 8 14 20 12 17 11 16 26 36 24 34 52 72 14 19 8 11 18-18 7-8 10-11 7-8 8-8 7-8 10-10 7-8 16-17 7-8 7-7 7-8 13-14 7-8 10-11 8-10 10-11 7-8 9-10 7-8 9-10 8-8 4 2 10 14 12 17 14 19 8 11 2 6-5 5-9 10-11 14-13 14-9 11-8 8-9 11-10 11-9 11-10 11-9 11-13 14-7 8-13 15-9 11-4 2-228 1-5-2-8-9-14-19-26-36-11-16-24-34-14-20-33-48-12-17-11-16-12-17-14-20-6-8-7-1h-95l-30-1v261l-1 1-8 1h-121l-3-1-1-2v-679l3-1 59-1zm-16 110v209h52l171-1 15-4 16-8 14-9 12-11 8-10 8-16 4-10 4-19v-35l-5-19-5-12-6-11-11-14-12-11-13-8-13-6-9-3-6-1-21-1z" fill="#EDDFCC"/>
<path transform="translate(712,140)" d="m0 0h174l29 2 21 3 21 5 19 7 18 8 20 11 18 13 11 9 12 11 11 11 9 11 10 14 11 19 9 19 7 21 5 25 2 17v40l-5 30-6 20-6 16-9 19-11 16-13 17-10 11-8 7-12 10-17 11-21 11-16 6 2 5 28 40 8 12 16 23 14 19 11 16 20 28 13 18 11 16 13 18 16 23 26 36 6 9-1 2-141 1-5-2-8-10-12-18-14-20-26-38-16-23-8-12-11-16-10-15-11-16-17-25-11-16-16-23-16-24-3-2-203 1-22 1 2-5 10-14 10-13 12-22 8-16 7-16 6-15 5-6 2-1h89l132-1 18-2 15-5 17-9 13-11 10-10 9-14 5-11 4-18 2-20-1-20-4-20-6-15-9-14-9-11-14-11-15-9-17-6-16-2h-230l-5-2-6-10-10-19-12-19-12-17-11-14-15-16-9-10-1-3h72z" fill="#EDDFCC"/>
<path transform="translate(1407,4)" d="m0 0 2 1v12l-3 27-10 97-5 51-10 90-1 11-1 3-5-2-13-10-25-17-22-15-18-13-6-3-5 1-11 12-9 9-7 8-9 9-7 8-11 12-7 8-12 13-29 31-10 11-9 11-5 3-2-5-1-28-4-31-7-28-2-11v-8l8-7 16-16 7-8 13-13 5-6h2l2-4 9-8 7-8 2-2v-5l-4-2-10-6-24-15-19-12-15-9-19-10v-4l29-12 28-11 37-15 29-12 34-15 32-14 29-13 18-8 45-21z" fill="#D27BC8"/>
<path transform="translate(1827,398)" d="m0 0h38l21 3 20 6 18 8 17 10 14 11 15 15 11 15 9 16 7 15 7 24 4 24 1 22-2 27-4 21-8 24-8 16-7 11-11 15-6 7-8 7-11 9-18 11-17 8-26 7-17 3-9 1h-27l-21-3-18-5-16-6-17-9-14-10-13-12-9-9-11-15-10-17-8-19-6-21-3-18-1-12v-24l2-20 5-23 7-18 8-16 9-15 9-11 9-10 10-9 18-12 19-10 24-8zm5 53-17 3-14 5-15 9-12 11-10 11-8 14-6 15-4 18-1 11v38l3 20 5 15 7 14 8 11 11 12 13 9 14 7 14 4 10 2 10 1h11l21-3 16-5 17-9 13-11 11-13 6-10 6-14 7-33 1-10v-12l-3-24-6-23-5-12-8-13-11-13-13-10-16-8-16-5-11-2z" fill="#FEFBD3"/>
<path transform="translate(1237,398)" d="m0 0h32l19 3 18 6 19 10 14 12 10 12 8 15 8 25v9l-2 1-59 1-3-4-4-12-6-11-5-6-11-7-16-4h-16l-13 4-10 5-8 9-4 10-1 5v10l3 10 6 10 12 9 20 9 41 14 30 13 16 9 9 7 8 7 9 12 7 15 4 17v27l-4 18-4 10-9 15-11 12-8 7-15 9-13 5-25 6-14 2h-25l-25-4-18-6-16-8-9-6-10-9-9-9-10-16-9-24-3-13v-6l1-2 60-1 3 3 5 18 7 12 10 10 14 7 14 3h20l13-3 12-6 6-5 6-10 3-9v-17l-3-10-6-9-9-8-11-6-13-6-27-9-20-7-26-11-15-9-10-9-5-5-6-7-10-19-3-11-1-15v-14l3-15 4-9 8-15 14-15 11-8 16-8 19-7 9-2z" fill="#FEFBD2"/>
<path transform="translate(1443,404)" d="m0 0h180l15 1v14l-1 30-3 2-150-1v91h139v44l-1 1h-138v95h152l1 1v44l-1 1-207 1-3-1-1-7v-315z" fill="#FEFBD3"/>
<path transform="translate(814,589)" d="m0 0 4 2 10 14 12 17 14 19 8 11 2 6-5 5-9 10-11 14-13 14-9 11-8 8-9 11-10 11-9 11-10 11-9 11-13 14-7 8-13 15-9 11-4 2h-91l-8-16 1-5 9-10 15-16 7-8 9-10 7-7 7-8 10-10 7-8 16-17 7-8 7-7 7-8 13-14 7-8 10-11 8-10 10-11 7-8 9-10 7-8 9-10z" fill="#D27BC8"/>
<path transform="translate(27,960)" d="m0 0 43 1 16 1 11 3 9 5 7 8 4 10 1 4v19l-4 12-5 6-12 9 1 6 6 11 9 19 5 10 1 7h-19l-6-2-5-6-14-31-5-9-9-4-9-1-1 6-2 46-3 1h-18l-1-1-1-10v-119zm26 19-3 1-1 2v35l3 3 2 1 11 1h10l14-4 4-5 2-5v-13l-5-9-5-4-6-2-10-1z" fill="#FD7BFD"/>
<path transform="translate(1965,958)" d="m0 0h9l3 1v127l-2 5-1 1h-11l-7-4-2-2-8 1-14 5-9 1h-9l-11-3-9-6-8-8-7-14-2-8v-21l6-15 8-10 10-7 12-3h14l14 3 10 4v-46zm-46 59-8 4-9 11-2 5v13l3 9 8 9 7 4 4 1h9l9-4 8-6 3-6 1-7v-12l-3-9-5-6-9-5-4-1z" fill="#FD7BFD"/>
<path transform="translate(1474,960)" d="m0 0 10 1 5 10 9 25 7 18 14 40 7 19 6 15v3l-14 1-10-1-4-6-5-19-3-4-35-1-15 1-9 26-2 2-4 1h-17l-2-4 6-17 11-32 6-17 10-29 9-22 4-6 2-2zm-4 32-5 11-10 30-2 4v4l4 1 30 1 2-2-8-26-6-16-4-7z" fill="#FD7BFD"/>
<path transform="translate(1009,959)" d="m0 0 17 1 12 4 8 6 7 8 4 9 1 8-3 3-4 1h-8l-10-4-4-5-5-8-11-3h-7l-7 4-4 5-1 7 4 7 6 5 19 8 17 7 10 7 8 9 3 9v15l-4 10-6 8-7 6-10 5-8 2-14 1-14-2-12-5-10-9-4-5-4-9-1-10 2-4 14-1 5 1 5 10 9 9 10 4h7l8-3 6-5 2-5-1-8-3-6-8-6-30-11-9-5-7-6-6-10-1-2v-16l3-10 6-8 7-6 10-5z" fill="#FC7BFC"/>
<path transform="translate(1550,958)" d="m0 0h21l1 1 1 52 8-7 9-5 3-1h20l9 3 8 6 6 10 2 8 1 9v53l-4 4-10 1-8-2-2-7-1-47-2-10-3-6-8-3h-8l-10 4-7 8-2 5-1 55-4 2h-17l-2-3-1-10v-119z" fill="#FD7BFD"/>
<path transform="translate(633,998)" d="m0 0h23l9 2 10 6 6 9 3 7 2 20v46l-3 4-3 1h-7l-6-4-1-8-10 5-8 5-8 2h-20l-9-4-8-9-4-9-1-4v-8l6-10 8-7 10-3 15-2h23l-1-14-4-4h-17l-8 3-12 6-10 3-4-1-2-2v-7l6-10 8-7 8-4zm14 52-15 2-7 4-2 4v6l4 6 5 3h12l10-6 5-6 1-9-2-4z" fill="#FD7BFD"/>
<path transform="translate(1805,998)" d="m0 0h20l10 2 10 5 6 7 4 8 2 8 1 9v37l-1 13-3 4-3 1h-7l-5-3-3-5-5 1-13 6-8 2h-18l-9-4-7-6-5-8-2-6v-10l6-10 6-6 13-4 16-2h23v-7l-3-7-5-4-3-1h-13l-9 4-16 8-6 2h-5l-1-6 5-12 9-9 10-5zm4 53-9 3-5 5-1 7 4 6 4 3 9 1 9-3 8-7 3-5 1-10z" fill="#FD7BFD"/>
<path transform="translate(179,998)" d="m0 0 16 1 11 4 8 6 5 10 2 9 1 12 1 43-1 7-7 2h-8l-6-6v-5l-9 5-8 5-10 2h-15l-9-2-8-7-6-9-1-5v-12l3-8 7-7 8-3 19-3 23-1 1-7-2-7-3-3-5-1h-9l-9 3-14 7-15 4-2-3 1-7 7-11 8-7 8-4zm0 52-10 2-7 4-3 5 1 7 5 5 6 2h7l10-4 5-5 2-5v-7l-1-4z" fill="#FC7BFC"/>
<path transform="translate(1191,998)" d="m0 0h21l13 3 8 5 4 5 4 9 3 14 1 16v17l-1 17-3 7-3 2-9-1-5-5-4-6-2-1-2 4-9 6-8 3h-19l-9-3-7-6-6-10-2-6v-7l3-8 9-10 12-4 12-2h19l9 1-2-12-4-6-5-2-8-1-9 2-16 9-11 4-5-1v-6l6-12 10-10 9-4zm5 52-9 3-4 5-1 7 3 7 4 3 3 1h8l9-3 5-6 3-9v-6l-3-2z" fill="#FD7BFD"/>
<path transform="translate(359,958)" d="m0 0h20l1 1v76l5-2 9-12 11-12 8-7 7-3 5-1h10l4 4-7 8-11 11-11 14-3 4 1 5 11 14 15 16 10 10 2 4v3h-21l-8-3-8-7-11-14-13-16-4-4v35l-1 7-4 2h-15l-2-2-1-6v-124z" fill="#FD7BFD"/>
<path transform="translate(508,960)" d="m0 0 66 1 18 1 1 2v8l-2 6-2 1h-57v38l47 1 3 2 1 7-3 9-1 1h-14l-33-1v54l-2 1h-22l-2-8v-122z" fill="#FD7BFD"/>
<path transform="translate(1693,998)" d="m0 0h24l12 4 10 7 6 8 5 12 2 11v7l-2 2-5 1-63 1 1 9 6 8 6 4 10 2 9-2 9-6 16-8 7-2 2 1v8l-4 8-11 12-8 5-10 3-12 1-16-2-8-4-8-7-9-14-3-9-1-5v-14l4-15 5-9 8-9 10-6zm3 18-8 4-6 10v5l3 2h41l1-1v-7l-4-7-7-5-3-1z" fill="#FD7BFD"/>
<path transform="translate(1258,999)" d="m0 0h18l4 2 8 16 10 27 5 16 2 2 7-14 12-29 7-17 3-3h24l-1 5-10 21-11 26-16 37-14 29-6 11-4 5-6 1-12-3-1-4 12-28 1-3v-10l-9-20-11-28-13-33-1-5z" fill="#FD7BFD"/>
<path transform="translate(290,998)" d="m0 0h16l9 2 9 6 5 6 4 12 2 18 1 44-2 4-3 1h-18l-3-3-1-60-3-6-5-3-4-1h-12l-8 4-5 6-2 5-1 8-1 48-4 2h-17l-3-4v-87l1-1h13l6 4 3 4 6-1 12-7z" fill="#FD7BFD"/>
<path transform="translate(742,997)" d="m0 0 15 1 9 3 9 7 6 12v7l-8 1-9-2-16-9h-13l-4 2v6l5 4 36 12 10 7 4 8v12l-3 8-9 10-11 6-14 2-14-1-11-4-8-6-7-8-4-10v-6h7l10 3 11 7 8 5 3 1h9l5-2 2-5v-8l-4-4-20-4-12-4-9-6-7-7-1-2v-9l3-10 6-8 5-4 11-4z" fill="#FC7BFC"/>
<path transform="translate(1099,973)" d="m0 0h9l5 3 1 1v21l22 2 3 2 1 3v10l-5 3h-13l-6 1-1 19v22l1 9 4 1h17l2 2v9l-4 8-9 3h-8l-13-4-8-6-5-10-2-8-1-19 1-22-14-7-3-4 1-7 6-5 9-3 2-2 3-16z" fill="#FD7BFD"/>
<path transform="translate(824,972)" d="m0 0 9 1 3 4 1 23 17-1 7 2 2 5v9l-5 3h-19l-1 5-1 20v15l1 11 9 2h14l1 3v12l-4 4-4 1h-13l-10-1-10-6-6-10-2-14-1-41h-11l-4-4-1-2v-7l4-6 14-1 1-17 3-7z" fill="#FD7BFD"/>
<path transform="translate(885,1066)" d="m0 0h14l5 5v14l-2 4-8 2h-11l-5-6v-13l3-5z" fill="#FD7BFD"/>
<path transform="translate(2e3 1066)" d="m0 0h8l8 2 4 5v9l-3 6-7 3h-9l-5-2-3-7v-8l2-5z" fill="#FD7BFD"/>
<path transform="translate(592,141)" d="m0 0h12l7 2 5 5 2 3v7l-1 9 1 2-4-2-22-24z" fill="#FDFAD2"/>
<path transform="translate(1153,803)" d="m0 0 3 1 10 14 3 6-1 1h-8l-1-6-4-7z" fill="#FEFBD3"/>
</svg>
